<?xml version="1.0" encoding="UTF-8"?>
<svg fill="none" version="1.1" viewBox="0 0 512 512" xml:space="preserve" xmlns="http://www.w3.org/2000/svg">
<circle cx="440" cy="332" r="59" fill="#fff" fill-opacity=".1"/>
<circle cx="48" cy="398" r="34" fill="#fff" fill-opacity=".1"/>
<path d="m372.47 352.64c10.609-22.691 19.856-64.81 16.872-90.389-4.0793-34.967-23.191-61.721-23.049-79.633 0.23111-29.16-11.131-51.485-23.837-63.958-53.412-52.431-138.93-34.837-184.92 3.8369-22 18.5-36.366 51.785-40.172 68.497-11.149 48.966 7.8874 129.78 23.32 174.22 19.305 55.593 208.91 36.352 231.79-12.577z" fill="#402b3c"/>
<path d="m279 344.5 17-4-9.5 17-7.5-13z" fill="#141C33"/>
<path d="m160 205c4 0.4 9.333 3.5 12.5 5.5-2.4 6.8-1 17.5 0 22 4 3.5 6.5 5 9.5 12s32 39 35.5 43 46 23.5 63.5 22c14-1.2 30.167-5.5 36.5-7.5-2.8 3.2-26.833 11.333-38.5 15 0 13 10 40.5 12 48s-1 31.5-31 32.5-54-45-52.5-64-3.5-29-4.5-31.5-22-6-34.5-18.5-14.5-54.472-14.5-59c-6.5 9.5-5.984-20.698 6-19.5z" fill="url(#p0)"/>
<path d="m368.5 235c0.4-18-9.5-18.5-18.5-18.5-6.836 0-12 42-9.5 42s17.921-3.441 22-6.5c2-1.5 5.7-3.5 6-17z" fill="#FF884C"/>
<path d="m172 256.5c6.255-6.255-0.5-8-2.5-22.5-0.759-5.5 2.5-13.389-4-17-4.5-2.5-11.083-1.793-15 8-4 10-2 17 0 21 3.535 7.071 17 15 21.5 10.5z" fill="#FF884C"/>
<path d="m320 301.5c21-12 27.5-42.5 33-65.5 4.265-17.834 3.9-58.9-6.5-74.5-13-19.5-36-28-68-29s-68.357 12.128-84.5 30c-14 15.5-22.515 49.586-24 58-1.5 8.5 3 44 21.5 64s52.5 29.5 70 30.5 37.5-1.5 58.5-13.5z" fill="#ffc481"/>
<path d="m168.5 283.5c-12.5-12.5-15-57.5-14.5-62s12.355-7.39 13.5-3.5c7.126 24.229 30.751 54.898 50 69.5 5.5 4.173 45 23.586 63.5 22 14-1.2 30.167-5.5 36.5-7.5-2.8 3.2-26.833 11.334-38.5 15-9.545 3-22.658 2.952-31.5 3-15.132 0.082-26.143-2.607-31.5-1-6.323 1.897-7.688 7.518-8 3-1-14.5-2.5-17-5-20-1.724-2.068-22-6-34.5-18.5z" fill="#D87C4B" fill-opacity=".3"/>
<ellipse cx="228.5" cy="247" rx="33.5" ry="29" fill="url(#p1)"/>
<ellipse cx="325.5" cy="248" rx="22.5" ry="30" fill="url(#p2)"/>
<path d="m442 526c0-10-21.014-78.848-27-100-7.5-26.5-49-62-75.5-65.5 6.4-15.2 7.333-33.167 6-40.5-4.833 2.333-13.5 5.5-24 5.5-9.5 0-14 3.5-21.5 10.5-10.062 9.391-28 29.5-35.5 39.5-19.5-59-49-49.5-69.5-49.5-40 0-74.5-14-76.5 6.5s-4.5 40.5-16 48.5-33 40.5-39.5 57c-5.2 13.2-18 63.333-23 88 134.5 3.333 402 8 402 0z" fill="#1f2c42"/>
<path d="m149.5 360.5c-8-3.5-24.5-21-31-27.5-0.5 8-3.5 27.5-6.5 35.5 5.6-6 28.333-7.833 37.5-8z" fill="#000" fill-opacity=".2"/>
<path d="m282.5 447.5c-6-20.4-7.5-40.833-7.5-48.5l-12.5 2.5c-1 9.5 6 33.5 8.5 48.5 2 12 5.167 52 6.5 70.5h11c0.5-15.833 0-52.6-6-73z" fill="#90a1b9"/>
<path d="m321 391c-9.5 6-35.765 11.5-55 11.5-28 0-61-9-71.5-14.5-9.034-4.732-19.167-15.833-24-21.5 1.833 0.833 7.113 2.662 11.5 3 5 0.384 6-6.687 11-7 8-0.5 10.5 4.5 16.5 7s46 16 60 16c12 0 59-19.5 62-18s1.5 9 0 13.5-2.423 4.899-10.5 10z" fill="#1B2137"/>
<path d="m155.5 515.5c4.4-9.2 9.167-44.167 11-60.5-30.4 3.6-35.667 44.833-34.5 65 6 2.333 19.1 4.7 23.5-4.5z" fill="url(#p3)"/>
<g>
<path d="m247 357.5c1.2 4.8 3 56 3.5 82 0.106 5.5-8 7.2-8 0 0-9 0-81-3.5-85-2.374-2.713-5.5-1.5-5.5-5s2.5-3.5 6-2.5c4 1.143 6.125 5 7.5 10.5z" fill="#009689"/>
<path d="m324 440h-7c0-33-1.5-79.5-4-86-0.803-2.087-6 0-6-4.5 0-4.528 6-4 9-1.5 2.77 2.308 4 5 5.5 13 1.2 6.4 2.5 50 2.5 79z" fill="#009689"/>
<path d="m316.5 437-2 11h14l-2.5-11h-9.5z" fill="#fb64b6"/>
<path d="m254.5 449-14.5 1v-11l12-1 2.5 11z" fill="#fb64b6"/>
</g>
<g fill="#FF6B40">
<circle cx="211" cy="239" r="3"/>
<circle cx="234" cy="240" r="3"/>
<circle cx="226" cy="251" r="3"/>
<circle cx="320" cy="243" r="3"/>
<ellipse cx="332.5" cy="240" rx="2.5" ry="3"/>
<circle cx="326" cy="251" r="3"/>
</g>
<path d="m293.5 283.5c-1.5 3.5-9.361 7-14 7-8.5 0-15.5-6.5-17-13.5-0.857-4 2.5-4 3.5-1.5s6.698 10.486 13.5 10c6.549-0.468 7.5-3 10-4.5 2.712-1.627 5.381-0.724 4 2.5z" fill="#FF7F4B"/>
<path d="m225 218.5c0-4.142 3.358-7.5 7.5-7.5s7.5 3.358 7.5 7.5v13.5h-15v-13.5z" fill="#7A1F4D"/>
<path d="m325 218.5c0-4.142 3.358-7.5 7.5-7.5s7.5 3.358 7.5 7.5v13.5h-15v-13.5z" fill="#7A1F4D"/>
<rect x="221" y="229" width="23" height="6" rx="3" fill="#DA524D"/>
<rect x="321" y="229" width="23" height="6" rx="3" fill="#DA524D"/>
<path d="m249 182.5c-1.196 4.957-39 11.5-40 8.5-1.71-5.131 43.5-23 40-8.5z" fill="#FF6233"/>
<path d="m313 182.5c1.123 4.974 32.431 12.246 34 9.5 4-7-37.161-23.5-34-9.5z" fill="#FF6233"/>
<path d="m248.8 163.81c32.151 24.725 98.466 30.546 115.96 11.338 19.633-21.562-30.908-62.002-66.867-66.859-40.242-5.4355-88.557 1.9891-99.98 9.5424 10.831 16.113 28.55 28.797 50.892 45.979z" fill="#402b3c"/>
<path d="m299.5 262h-24.5c0.5-13.167 1.5-40.8 1.5-46 0-7 11-8.5 13 0 4.644 19.739 8.333 38.833 10 46z" fill="url(#p4)"/>
<path d="m291.5 254.5-12 7.5h12.5l-0.5-7.5z" fill="#FF843F"/>
<defs>
<linearGradient id="p0" x1="234.31" x2="234.31" y1="203.96" y2="397.52" gradientUnits="userSpaceOnUse">
<stop stop-color="#FDA871" offset="0"/>
<stop stop-color="#F89767" offset="1"/>
</linearGradient>
<radialGradient id="p1" cx="0" cy="0" r="1" gradientTransform="translate(228.5 247) rotate(90) scale(29 33.5)" gradientUnits="userSpaceOnUse">
<stop stop-color="#FF9A58" offset="0"/>
<stop stop-color="#FF9A58" stop-opacity="0" offset="1"/>
</radialGradient>
<radialGradient id="p2" cx="0" cy="0" r="1" gradientTransform="translate(325.5 248) rotate(90) scale(30 22.5)" gradientUnits="userSpaceOnUse">
<stop stop-color="#FF9A58" offset="0"/>
<stop stop-color="#FF9A58" stop-opacity="0" offset="1"/>
</radialGradient>
<linearGradient id="p3" x1="132" x2="166" y1="494.5" y2="494.5" gradientUnits="userSpaceOnUse">
<stop stop-color="#18223A" stop-opacity="0" offset="0"/>
<stop stop-color="#18223A" offset="1"/>
</linearGradient>
<linearGradient id="p4" x1="287.25" x2="287.25" y1="210.17" y2="262" gradientUnits="userSpaceOnUse">
<stop stop-color="#FFBA7A" offset="0"/>
<stop stop-color="#FF994E" offset="1"/>
</linearGradient>
</defs>
</svg>
