<svg xmlns="http://www.w3.org/2000/svg" width="480" height="270" viewBox="0 0 480 270">
  <rect x="0" y="0" width="480" height="270" fill="#4c1d95"/>
  <g transform="translate(37.5 94.5)">
    <path fill="#fff" d="M76.02,65.244 C73.331987,64.259995 70.764012,62.664011 68.316,60.456 C67.307995,59.591996 66.804,58.608006 66.804,57.504 C66.804,56.639996 67.139997,55.860003 67.812,55.164 C68.484003,54.467997 69.275995,54.12 70.188,54.12 C71.004004,54.12 71.699997,54.383997 72.276,54.912 C74.19601,56.688009 76.17599,57.995996 78.216,58.836 C80.25601,59.676004 82.571987,60.096 85.164,60.096 C88.188015,60.096 90.74399,59.400007 92.832,58.008 C94.92001,56.615993 95.964,54.864011 95.964,52.752 C95.916,50.255988 94.87201,48.3240068 92.832,46.956 C90.79199,45.5879932 87.684021,44.4480046 83.508,43.536 C78.563975,42.527995 74.760013,40.8720115 72.096,38.568 C69.431987,36.2639885 68.1,33.0720204 68.1,28.992 C68.1,26.1599858 68.843993,23.6760107 70.332,21.54 C71.820007,19.4039893 73.883987,17.7600058 76.524,16.608 C79.164013,15.4559942 82.139983,14.88 85.452,14.88 C88.428015,14.88 91.235987,15.3599952 93.876,16.32 C96.516013,17.2800048 98.651992,18.5519921 100.284,20.136 C101.388006,21.0960048 101.94,22.1279945 101.94,23.232 C101.94,24.0960043 101.616003,24.8639966 100.968,25.536 C100.319997,26.2080034 99.540005,26.544 98.628,26.544 C97.955997,26.544 97.404002,26.3520019 96.972,25.968 C95.723994,24.7199938 93.996011,23.6640043 91.788,22.8 C89.579989,21.9359957 87.46801,21.504 85.452,21.504 C82.235984,21.504 79.680009,22.1639934 77.784,23.484 C75.887991,24.8040066 74.94,26.5439892 74.94,28.704 C74.94,31.0560118 75.887991,32.8559938 77.784,34.104 C79.680009,35.3520062 82.499981,36.4079957 86.244,37.272 C89.988019,38.0880041 93.047988,39.0479945 95.424,40.152 C97.800012,41.2560055 99.635994,42.7919902 100.932,44.76 C102.228006,46.7280098 102.876,49.2959842 102.876,52.464 C102.876,55.248014 102.096008,57.719989 100.536,59.88 C98.975992,62.040011 96.852013,63.719994 94.164,64.92 C91.475987,66.120006 88.524016,66.72 85.308,66.72 C81.803982,66.72 78.708013,66.228005 76.02,65.244 Z M121.308,34.968 L121.308,56.424 C121.308,58.824012 122.387989,60.024 124.548,60.024 C124.884002,60.024 125.339997,59.940001 125.916,59.772 C126.492003,59.603999 126.947998,59.52 127.284,59.52 C127.908003,59.52 128.435998,59.783997 128.868,60.312 C129.300002,60.840003 129.516,61.511996 129.516,62.328 C129.516,63.336005 128.940006,64.199996 127.788,64.92 C126.635994,65.640004 125.340007,66 123.9,66 C122.315992,66 120.864007,65.832002 119.544,65.496 C118.223993,65.159998 117.048005,64.308007 116.016,62.94 C114.983995,61.571993 114.468,59.496014 114.468,56.712 L114.468,34.968 L110.292,34.968 C109.379995,34.968 108.624003,34.668003 108.024,34.068 C107.423997,33.467997 107.124,32.7120046 107.124,31.8 C107.124,30.8879954 107.423997,30.1440029 108.024,29.568 C108.624003,28.9919971 109.379995,28.704 110.292,28.704 L114.468,28.704 L114.468,22.656 C114.468,21.6959952 114.791997,20.8800034 115.44,20.208 C116.088003,19.5359966 116.915995,19.2 117.924,19.2 C118.884005,19.2 119.687997,19.5359966 120.336,20.208 C120.984003,20.8800034 121.308,21.6959952 121.308,22.656 L121.308,28.704 L127.284,28.704 C128.196005,28.704 128.951997,29.003997 129.552,29.604 C130.152003,30.204003 130.452,30.9599954 130.452,31.872 C130.452,32.7840046 130.152003,33.5279971 129.552,34.104 C128.951997,34.6800029 128.196005,34.968 127.284,34.968 L121.308,34.968 Z M160.476,28.38 C161.388005,29.0280032 161.844,29.8319952 161.844,30.792 C161.844,31.9440058 161.544003,32.819997 160.944,33.42 C160.343997,34.020003 159.612004,34.32 158.748,34.32 C158.315998,34.32 157.668004,34.1760014 156.804,33.888 C155.795995,33.5519983 155.004003,33.384 154.428,33.384 C152.939993,33.384 151.488007,33.8999948 150.072,34.932 C148.655993,35.9640052 147.504004,37.379991 146.616,39.18 C145.727996,40.980009 145.284,42.983989 145.284,45.192 L145.284,62.544 C145.284,63.504005 144.960003,64.319997 144.312,64.992 C143.663997,65.664003 142.836005,66 141.828,66 C140.819995,66 140.004003,65.676003 139.38,65.028 C138.755997,64.379997 138.444,63.552005 138.444,62.544 L138.444,31.728 C138.444,30.7679952 138.767997,29.9520034 139.416,29.28 C140.064003,28.6079966 140.867995,28.272 141.828,28.272 C142.836005,28.272 143.663997,28.6079966 144.312,29.28 C144.960003,29.9520034 145.284,30.7679952 145.284,31.728 L145.284,35.4 C146.340005,33.0479882 147.923989,31.1400073 150.036,29.676 C152.148011,28.2119927 154.547987,27.4560002 157.236,27.408 C158.484006,27.408 159.563995,27.7319968 160.476,28.38 Z M198.744,29.28 C199.392003,29.9520034 199.716,30.7679952 199.716,31.728 L199.716,50.88 C199.716,55.872025 198.336014,59.747986 195.576,62.508 C192.815986,65.268014 188.916025,66.648 183.876,66.648 C178.883975,66.648 175.020014,65.268014 172.284,62.508 C169.547986,59.747986 168.18,55.872025 168.18,50.88 L168.18,31.728 C168.18,30.7679952 168.503997,29.9520034 169.152,29.28 C169.800003,28.6079966 170.603995,28.272 171.564,28.272 C172.572005,28.272 173.399997,28.6079966 174.048,29.28 C174.696003,29.9520034 175.02,30.7679952 175.02,31.728 L175.02,50.88 C175.02,57.168031 177.97197,60.312 183.876,60.312 C186.804015,60.312 189.035992,59.520008 190.572,57.936 C192.108008,56.351992 192.876,54.000016 192.876,50.88 L192.876,31.728 C192.876,30.7679952 193.199997,29.9520034 193.848,29.28 C194.496003,28.6079966 195.299995,28.272 196.26,28.272 C197.268005,28.272 198.095997,28.6079966 198.744,29.28 Z M235.824,29.208 C238.344013,30.408006 239.604,31.9439906 239.604,33.816 C239.604,34.6320041 239.340003,35.3639968 238.812,36.012 C238.283997,36.6600032 237.612004,36.984 236.796,36.984 C236.171997,36.984 235.680002,36.888001 235.32,36.696 C234.959998,36.503999 234.468003,36.1920022 233.844,35.76 C233.555999,35.4719986 233.100003,35.1360019 232.476,34.752 C231.899997,34.4639986 231.084005,34.224001 230.028,34.032 C228.971995,33.839999 228.012004,33.744 227.148,33.744 C224.651988,33.744 222.44401,34.3199942 220.524,35.472 C218.60399,36.6240058 217.116005,38.2199898 216.06,40.26 C215.003995,42.3000102 214.476,44.5679875 214.476,47.064 C214.476,49.6080127 214.991995,51.88799 216.024,53.904 C217.056005,55.92001 218.507991,57.503994 220.38,58.656 C222.252009,59.808006 224.387988,60.384 226.788,60.384 C229.284012,60.384 231.299992,60.000004 232.836,59.232 C233.172002,59.039999 233.627997,58.728002 234.204,58.296 C234.684002,57.911998 235.103998,57.624001 235.464,57.432 C235.824002,57.239999 236.267997,57.144 236.796,57.144 C237.756005,57.144 238.511997,57.443997 239.064,58.044 C239.616003,58.644003 239.892,59.423995 239.892,60.384 C239.892,61.392005 239.256006,62.387995 237.984,63.372 C236.711994,64.356005 235.008011,65.159997 232.872,65.784 C230.735989,66.408003 228.444012,66.72 225.996,66.72 C222.347982,66.72 219.132014,65.868009 216.348,64.164 C213.563986,62.459991 211.416008,60.108015 209.904,57.108 C208.391992,54.107985 207.636,50.760018 207.636,47.064 C207.636,43.3679815 208.427992,40.020015 210.012,37.02 C211.596008,34.019985 213.803986,31.6680085 216.636,29.964 C219.468014,28.2599915 222.707982,27.408 226.356,27.408 C230.148019,27.408 233.303987,28.007994 235.824,29.208 Z M257.172,34.968 L257.172,56.424 C257.172,58.824012 258.251989,60.024 260.412,60.024 C260.748002,60.024 261.203997,59.940001 261.78,59.772 C262.356003,59.603999 262.811998,59.52 263.148,59.52 C263.772003,59.52 264.299998,59.783997 264.732,60.312 C265.164002,60.840003 265.38,61.511996 265.38,62.328 C265.38,63.336005 264.804006,64.199996 263.652,64.92 C262.499994,65.640004 261.204007,66 259.764,66 C258.179992,66 256.728007,65.832002 255.408,65.496 C254.087993,65.159998 252.912005,64.308007 251.88,62.94 C250.847995,61.571993 250.332,59.496014 250.332,56.712 L250.332,34.968 L246.156,34.968 C245.243995,34.968 244.488003,34.668003 243.888,34.068 C243.287997,33.467997 242.988,32.7120046 242.988,31.8 C242.988,30.8879954 243.287997,30.1440029 243.888,29.568 C244.488003,28.9919971 245.243995,28.704 246.156,28.704 L250.332,28.704 L250.332,22.656 C250.332,21.6959952 250.655997,20.8800034 251.304,20.208 C251.952003,19.5359966 252.779995,19.2 253.788,19.2 C254.748005,19.2 255.551997,19.5359966 256.2,20.208 C256.848003,20.8800034 257.172,21.6959952 257.172,22.656 L257.172,28.704 L263.148,28.704 C264.060005,28.704 264.815997,29.003997 265.416,29.604 C266.016003,30.204003 266.316,30.9599954 266.316,31.872 C266.316,32.7840046 266.016003,33.5279971 265.416,34.104 C264.815997,34.6800029 264.060005,34.968 263.148,34.968 L257.172,34.968 Z"/>
    <path fill="#3B8BEA" d="M314.052,16.572 C314.724003,17.2200032 315.06,18.047995 315.06,19.056 L315.06,62.472 C315.012,63.480005 314.652003,64.319997 313.98,64.992 C313.307997,65.664003 312.444005,66 311.388,66 C310.427995,66 309.600003,65.664003 308.904,64.992 C308.207997,64.319997 307.86,63.480005 307.86,62.472 L307.86,43.824 L282.3,43.824 L282.3,62.472 C282.3,63.480005 281.940004,64.319997 281.22,64.992 C280.499996,65.664003 279.660005,66 278.7,66 C277.643995,66 276.792003,65.664003 276.144,64.992 C275.495997,64.319997 275.172,63.480005 275.172,62.472 L275.172,19.056 C275.172,18.0959952 275.507997,17.2800034 276.18,16.608 C276.852003,15.9359966 277.715995,15.6 278.772,15.6 C279.732005,15.6 280.559997,15.9359966 281.256,16.608 C281.952003,17.2800034 282.3,18.0959952 282.3,19.056 L282.3,37.2 L307.86,37.2 L307.86,19.056 C307.86,18.0959952 308.219996,17.2800034 308.94,16.608 C309.660004,15.9359966 310.499995,15.6 311.46,15.6 C312.516005,15.6 313.379997,15.9239968 314.052,16.572 Z M356.64,29.28 C357.288003,29.9520034 357.612,30.7679952 357.612,31.728 L357.612,50.88 C357.612,55.872025 356.232014,59.747986 353.472,62.508 C350.711986,65.268014 346.812025,66.648 341.772,66.648 C336.779975,66.648 332.916014,65.268014 330.18,62.508 C327.443986,59.747986 326.076,55.872025 326.076,50.88 L326.076,31.728 C326.076,30.7679952 326.399997,29.9520034 327.048,29.28 C327.696003,28.6079966 328.499995,28.272 329.46,28.272 C330.468005,28.272 331.295997,28.6079966 331.944,29.28 C332.592003,29.9520034 332.916,30.7679952 332.916,31.728 L332.916,50.88 C332.916,57.168031 335.86797,60.312 341.772,60.312 C344.700015,60.312 346.931992,59.520008 348.468,57.936 C350.004008,56.351992 350.772,54.000016 350.772,50.88 L350.772,31.728 C350.772,30.7679952 351.095997,29.9520034 351.744,29.28 C352.392003,28.6079966 353.195995,28.272 354.156,28.272 C355.164005,28.272 355.991997,28.6079966 356.64,29.28 Z M395.628,29.928 C398.268013,31.6080084 400.343992,33.9359851 401.856,36.912 C403.368008,39.8880149 404.124,43.2479813 404.124,46.992 C404.124,50.736019 403.368008,54.119985 401.856,57.144 C400.343992,60.168015 398.268013,62.519992 395.628,64.2 C392.987987,65.880008 390.084016,66.72 386.916,66.72 C384.419988,66.72 382.092011,66.168006 379.932,65.064 C377.771989,63.959994 376.020007,62.592008 374.676,60.96 L374.676,63.048 C374.676,64.008005 374.352003,64.823997 373.704,65.496 C373.055997,66.168003 372.228005,66.504 371.22,66.504 C370.259995,66.504 369.456003,66.180003 368.808,65.532 C368.159997,64.883997 367.836,64.056005 367.836,63.048 L367.836,16.176 C367.836,15.167995 368.147997,14.3400032 368.772,13.692 C369.396003,13.0439968 370.211995,12.72 371.22,12.72 C372.228005,12.72 373.055997,13.0559966 373.704,13.728 C374.352003,14.4000034 374.676,15.2159952 374.676,16.176 L374.676,33.744 C375.828006,32.0159914 377.507989,30.5280062 379.716,29.28 C381.924011,28.0319938 384.275988,27.408 386.772,27.408 C390.036016,27.408 392.987987,28.2479916 395.628,29.928 Z M391.956,58.62 C393.732009,57.443994 395.111995,55.83601 396.096,53.796 C397.080005,51.75599 397.572,49.4880125 397.572,46.992 C397.572,44.4959875 397.080005,42.2400101 396.096,40.224 C395.111995,38.2079899 393.732009,36.6240058 391.956,35.472 C390.179991,34.3199942 388.188011,33.744 385.98,33.744 C383.723989,33.744 381.708009,34.3199942 379.932,35.472 C378.155991,36.6240058 376.776005,38.19599 375.792,40.188 C374.807995,42.18001 374.316,44.4479873 374.316,46.992 C374.316,49.5360127 374.807995,51.81599 375.792,53.832 C376.776005,55.84801 378.155991,57.443994 379.932,58.62 C381.708009,59.796006 383.723989,60.384 385.98,60.384 C388.188011,60.384 390.179991,59.796006 391.956,58.62 Z M18.2614692,2.8978011 C20.3960533,-0.969779 23.8611435,-0.9620865 25.991482,2.8978011 L42.6536048,33.0873323 C44.7881889,36.9549123 44.7839433,43.2331909 42.6536048,47.0930785 L25.991482,77.28261 C23.8568979,81.15019 20.3918077,81.142497 18.2614692,77.28261 L1.5993464,47.0930785 C-0.5352377,43.2254985 -0.5309921,36.9472199 1.5993464,33.0873323 L18.2614692,2.8978011 Z M26.9935149,25.7384389 L16.6596003,25.7384389 C15.0016996,25.7384389 12.9959683,26.8991214 12.169333,28.3308959 L7.5018951,36.4151354 C6.4022762,38.3197312 6.3993827,41.4208283 7.5018951,43.3304357 L12.169333,51.414675 C12.9982833,52.850459 15.0063295,54.007132 16.6596003,54.007132 L26.9935149,54.007132 C28.6514156,54.007132 30.6571468,52.84645 31.4837822,51.414675 L36.1512201,43.3304357 C37.250839,41.4258399 37.2537325,38.3247428 36.1512201,36.4151354 L31.4837822,28.3308959 C30.6548319,26.8951118 28.6467857,25.7384389 26.9935149,25.7384389 Z"/>
  </g>
</svg>
