<svg width="512" height="512" viewBox="0 0 512 512" fill="none" xmlns="http://www.w3.org/2000/svg">
<g clip-path="url(#clip0_408_2)">
<!-- <rect width="512" height="512" fill="#7E22CE"/> -->
<circle cx="440" cy="332" r="59" fill="white" fill-opacity="0.1"/>
<circle cx="48" cy="398" r="34" fill="white" fill-opacity="0.1"/>
<path d="M175.5 313.5C181 314.5 206.955 320 218 320C235 320 317 277 330 268C343 259 358 231.5 358 229C358 226.5 368.5 206 370 187C371.816 164 357.5 133 346.5 119C337.237 107.21 318 84 311 70C308.5 70 306.5 70.3333 305.5 71C301 61.5 294.167 53 290 48C283 50 268.5 57.1667 261.5 61C261.1 58.2 260.667 55 260.5 53.5C255 55 243.5 58.9028 231 65.5C213 75 174.5 104 152.5 122.5C130.5 141 124.5 173.5 121.5 182C121.5 190.5 121 203 123 212.5C127 221 144.5 272 147 280C151 287.5 162 302.5 175.5 313.5Z" fill="#402B3C"/>
<path d="M279 344.5L296 340.5L286.5 357.5L279 344.5Z" fill="#141C33"/>
<path d="M160 205C164 205.4 169.333 208.5 172.5 210.5C170.1 217.3 171.5 228 172.5 232.5C176.5 236 179 237.5 182 244.5C185 251.5 214 283.5 217.5 287.5C221 291.5 263.5 311 281 309.5C295 308.3 311.167 304 317.5 302C314.7 305.2 290.667 313.333 279 317C279 330 289 357.5 291 365C293 372.5 290 396.5 260 397.5C230 398.5 206 352.5 207.5 333.5C209 314.5 204 304.5 203 302C202 299.5 181 296 168.5 283.5C156 271 154 229.028 154 224.5C147.5 234 148.016 203.802 160 205Z" fill="url(#paint0_linear_408_2)"/>
<path d="M368.5 235C368.9 217 359 216.5 350 216.5C343.164 216.5 338 258.5 340.5 258.5C343 258.5 358.421 255.059 362.5 252C364.5 250.5 368.2 248.5 368.5 235Z" fill="#FF884C"/>
<path d="M320 301.5C341 289.5 347.5 259 353 236C357.265 218.166 356.9 177.1 346.5 161.5C333.5 142 310.5 133.5 278.5 132.5C246.5 131.5 210.143 144.628 194 162.5C180 178 171.485 212.086 170 220.5C168.5 229 173 264.5 191.5 284.5C210 304.5 244 314 261.5 315C279 316 299 313.5 320 301.5Z" fill="#FFC481"/>
<path d="M168.5 283.5C156 271 153.5 226 154 221.5C154.5 217 166.355 214.11 167.5 218C174.626 242.229 198.251 272.898 217.5 287.5C223 291.673 262.5 311.086 281 309.5C295 308.3 311.167 304 317.5 302C314.7 305.2 290.667 313.334 279 317C269.455 320 256.342 319.952 247.5 320C232.368 320.082 221.357 317.393 216 319C209.677 320.897 208.312 326.518 208 322C207 307.5 205.5 305 203 302C201.276 299.932 181 296 168.5 283.5Z" fill="#D87C4B" fill-opacity="0.3"/>
<path d="M172 256.5C178.255 250.245 171.5 248.5 169.5 234C168.741 228.5 172 220.611 165.5 217C161 214.5 154.417 215.207 150.5 225C146.5 235 148.5 242 150.5 246C154.035 253.071 167.5 261 172 256.5Z" fill="#FF884C"/>
<ellipse cx="228.5" cy="247" rx="33.5" ry="29" fill="url(#paint1_radial_408_2)"/>
<ellipse cx="325.5" cy="248" rx="22.5" ry="30" fill="url(#paint2_radial_408_2)"/>
<path d="M442 526C442 516 420.986 447.152 415 426C407.5 399.5 366 364 339.5 360.5C345.9 345.3 346.833 327.333 345.5 320C340.667 322.333 332 325.5 321.5 325.5C312 325.5 307.5 329 300 336C289.938 345.391 272 365.5 264.5 375.5C245 316.5 215.5 326 195 326C155 326 120.5 312 118.5 332.5C116.5 353 114 373 102.5 381C91 389 69.5 421.5 63 438C57.8 451.2 45 501.333 40 526C174.5 529.333 442 534 442 526Z" fill="#202D48"/>
<path d="M149.5 360.5C141.5 357 125 339.5 118.5 333C118 341 115 360.5 112 368.5C117.6 362.5 140.333 360.667 149.5 360.5Z" fill="black" fill-opacity="0.2"/>
<path d="M282.5 447.5C276.5 427.1 275 406.667 275 399L262.5 401.5C261.5 411 268.5 435 271 450C273 462 276.167 502 277.5 520.5H288.5C289 504.667 288.5 467.9 282.5 447.5Z" fill="#836164"/>
<path d="M321 391C311.5 397 285.235 402.5 266 402.5C238 402.5 205 393.5 194.5 388C185.466 383.268 175.333 372.167 170.5 366.5C172.333 367.333 177.613 369.162 182 369.5C187 369.884 188 362.813 193 362.5C201 362 203.5 367 209.5 369.5C215.5 372 255.5 385.5 269.5 385.5C281.5 385.5 328.5 366 331.5 367.5C334.5 369 333 376.5 331.5 381C330 385.5 329.077 385.899 321 391Z" fill="#1B2137"/>
<path d="M155.5 515.5C159.9 506.3 164.667 471.333 166.5 455C136.1 458.6 130.833 499.833 132 520C138 522.333 151.1 524.7 155.5 515.5Z" fill="url(#paint3_linear_408_2)"/>
<path d="M247 357.5C248.2 362.3 250 413.5 250.5 439.5C250.606 445 242.5 446.7 242.5 439.5C242.5 430.5 242.5 358.5 239 354.5C236.626 351.787 233.5 353 233.5 349.5C233.5 346 236 346 239.5 347C243.5 348.143 245.625 352 247 357.5Z" fill="#FFE8C8"/>
<path d="M324 440H317C317 407 315.5 360.5 313 354C312.197 351.913 307 354 307 349.5C307 344.972 313 345.5 316 348C318.77 350.308 320 353 321.5 361C322.7 367.4 324 411 324 440Z" fill="#FFE8C8"/>
<path d="M316.5 437L314.5 448H328.5L326 437H316.5Z" fill="#7E8C6F"/>
<path d="M254.5 449L240 450V439L252 438L254.5 449Z" fill="#7E8C6F"/>
<circle cx="211" cy="239" r="3" fill="#FF6B40"/>
<circle cx="234" cy="240" r="3" fill="#FF6B40"/>
<circle cx="226" cy="251" r="3" fill="#FF6B40"/>
<circle cx="320" cy="243" r="3" fill="#FF6B40"/>
<ellipse cx="332.5" cy="240" rx="2.5" ry="3" fill="#FF6B40"/>
<circle cx="326" cy="251" r="3" fill="#FF6B40"/>
<path d="M293.5 283.5C292 287 284.139 290.5 279.5 290.5C271 290.5 264 284 262.5 277C261.643 273 265 273 266 275.5C267 278 272.698 285.986 279.5 285.5C286.049 285.032 287 282.5 289.5 281C292.212 279.373 294.881 280.276 293.5 283.5Z" fill="#FF7F4B"/>
<path d="M225 218.5C225 214.358 228.358 211 232.5 211V211C236.642 211 240 214.358 240 218.5V232H225V218.5Z" fill="#7A1F4D"/>
<path d="M325 218.5C325 214.358 328.358 211 332.5 211V211C336.642 211 340 214.358 340 218.5V232H325V218.5Z" fill="#7A1F4D"/>
<rect x="221" y="229" width="23" height="6" rx="3" fill="#DA524D"/>
<rect x="321" y="229" width="23" height="6" rx="3" fill="#DA524D"/>
<path d="M249 182.5C247.804 187.457 210 194 209 191C207.29 185.869 252.5 168 249 182.5Z" fill="#FF6233"/>
<path d="M313 182.5C314.123 187.474 345.431 194.746 347 192C351 185 309.839 168.5 313 182.5Z" fill="#FF6233"/>
<path d="M299.5 262H275C275.5 248.833 276.5 221.2 276.5 216C276.5 209 287.5 207.5 289.5 216C294.144 235.739 297.833 254.833 299.5 262Z" fill="url(#paint4_linear_408_2)"/>
<path d="M291.5 254.5L279.5 262H292L291.5 254.5Z" fill="#FF843F"/>
</g>
<defs>
<linearGradient id="paint0_linear_408_2" x1="234.306" y1="203.965" x2="234.306" y2="397.516" gradientUnits="userSpaceOnUse">
<stop stop-color="#FDA871"/>
<stop offset="1" stop-color="#F89767"/>
</linearGradient>
<radialGradient id="paint1_radial_408_2" cx="0" cy="0" r="1" gradientUnits="userSpaceOnUse" gradientTransform="translate(228.5 247) rotate(90) scale(29 33.5)">
<stop stop-color="#FF9A58"/>
<stop offset="1" stop-color="#FF9A58" stop-opacity="0"/>
</radialGradient>
<radialGradient id="paint2_radial_408_2" cx="0" cy="0" r="1" gradientUnits="userSpaceOnUse" gradientTransform="translate(325.5 248) rotate(90) scale(30 22.5)">
<stop stop-color="#FF9A58"/>
<stop offset="1" stop-color="#FF9A58" stop-opacity="0"/>
</radialGradient>
<linearGradient id="paint3_linear_408_2" x1="132" y1="494.5" x2="166" y2="494.5" gradientUnits="userSpaceOnUse">
<stop stop-color="#18223A" stop-opacity="0"/>
<stop offset="1" stop-color="#18223A"/>
</linearGradient>
<linearGradient id="paint4_linear_408_2" x1="287.25" y1="210.174" x2="287.25" y2="262" gradientUnits="userSpaceOnUse">
<stop stop-color="#FFBA7A"/>
<stop offset="1" stop-color="#FF994E"/>
</linearGradient>
<clipPath id="clip0_408_2">
<rect width="512" height="512" fill="white"/>
</clipPath>
</defs>
</svg>
